<svg width="358" height="46" viewBox="0 0 358 46" fill="none" xmlns="http://www.w3.org/2000/svg">
<path d="M39.7203 33.8602C39.7203 30.3167 40.1029 29.6605 42.0156 29.3324L43.482 29.0699C43.992 28.6762 43.992 27.1669 43.482 26.7732C41.3142 26.9044 38.1902 26.97 35.1299 26.97C32.0058 26.97 28.8817 26.9044 24.355 26.7732C23.6537 27.1669 23.6537 28.6762 24.355 29.0699L27.1603 29.4636C30.2206 29.923 30.6031 30.3167 30.6031 33.8602V37.9943C30.6031 42.2596 29.8381 42.9815 26.2039 42.9815C23.845 42.9815 20.5296 42.5877 17.4693 40.4879C13.3251 37.6006 10.201 32.0228 10.201 22.6391C10.201 12.271 15.1103 3.60913 25.2476 3.60913C31.177 3.60913 35.1936 6.6933 37.2338 12.8616C37.6801 13.5178 39.4016 13.4522 39.6566 12.7304C39.019 8.72753 38.9553 4.1341 38.764 2.16548C36.7238 2.16548 33.2172 0.590585 26.1402 0.590585C20.7209 0.590585 15.5566 1.64052 11.2212 4.06848C3.57037 8.46505 0 15.6833 0 23.8859C0 33.3352 5.10052 40.6191 12.56 43.7033C17.0868 45.5407 20.7846 46 25.1201 46C28.6904 46 34.1735 45.1469 36.405 44.4251C38.1264 43.8345 39.7841 43.6377 40.868 43.4408C41.2505 43.2439 41.3142 42.1284 41.0592 41.8659C39.8478 41.6034 39.7203 40.291 39.7203 37.535V33.8602Z" fill="white"/>
<path d="M54.727 35.5007C54.727 41.5378 54.3445 41.9971 51.4754 42.5221L49.754 42.8502C49.244 43.1783 49.244 44.7532 49.754 45.1469C53.0694 45.0157 55.8746 44.9501 59.0625 44.9501C62.1228 44.9501 65.0556 45.0157 68.4347 45.1469C68.881 44.7532 68.881 43.1783 68.4347 42.8502L66.7133 42.5221C63.8442 41.9971 63.4617 41.5378 63.4617 35.5007V27.4294C63.4617 26.117 63.5892 25.9857 65.8207 25.9857C67.4146 25.9857 68.4347 26.5107 69.1998 28.2825C70.6662 31.7603 72.1326 34.9757 74.1728 38.4536C76.9781 43.1783 80.6759 45.3438 86.5415 45.3438C88.518 45.3438 90.5582 45.2126 91.5783 44.7532C91.8971 44.3595 91.8971 43.3752 91.3233 43.0471C90.3669 42.9815 88.7093 42.5877 87.0516 41.2097C83.9913 38.5193 81.3773 33.5977 77.1693 24.8046C76.8506 24.0827 76.8506 23.689 77.4881 23.3609C80.4209 21.8516 84.2463 19.3581 84.2463 13.5178C84.2463 9.31812 82.3336 6.03709 78.6357 3.80599C76.213 2.29672 71.5588 1.44365 66.1395 1.44365C60.0826 1.44365 55.1096 1.70614 50.3278 2.03424C49.5628 2.36234 49.5628 4.00286 50.2003 4.33096L51.9217 4.59344C54.5995 4.98716 54.727 5.70899 54.727 12.271V35.5007ZM63.4617 7.80885C63.4617 4.65906 63.5892 4.4622 66.2032 4.4622C71.1762 4.4622 74.5553 8.26819 74.5553 14.174C74.5553 18.0457 73.3439 20.1455 72.2601 21.2611C71.0487 22.5078 69.7098 23.0984 67.4146 23.0984C63.653 23.0984 63.4617 22.9016 63.4617 20.6049V7.80885Z" fill="white"/>
<path d="M113.642 30.1198C115.874 30.1198 116.384 30.2511 116.702 31.301L118.424 36.9444C119.189 39.3723 119.635 40.9472 119.635 41.4066C119.635 41.8003 119.38 42.2596 117.914 42.5221L115.874 42.8502C115.172 43.3752 115.3 44.7532 116.001 45.1469C118.934 45.0157 121.42 44.9501 124.608 44.9501C127.924 44.9501 131.366 45.0157 134.427 45.1469C135.001 44.7532 134.873 43.1783 134.49 42.8502L132.068 42.4565C129.709 42.0628 129.135 40.5535 127.796 36.6163L119.125 10.893C117.531 6.23395 116.766 3.80599 116.256 1.903C116.001 0.918691 115.619 0.590585 114.79 0.590585C114.662 0.590585 112.303 3.80599 109.243 4.52782C109.434 6.43082 108.35 8.72753 106.884 12.8616L101.082 28.873C99.3606 33.5977 98.1492 36.7475 97.0654 39.3723C95.9815 41.9315 94.7064 42.4565 93.1762 42.6534L91.4548 42.8502C91.0085 43.3752 90.9447 44.7532 91.6461 45.1469C94.5789 45.1469 96.0453 44.9501 98.213 44.9501C100.891 45.0157 103.186 45.0157 105.417 45.1469C106.055 44.8188 105.928 43.3096 105.545 42.8502L103.632 42.5221C101.847 42.194 101.018 41.8003 101.018 41.4066C101.018 40.8816 101.082 40.3566 101.465 39.0442L103.951 31.4322C104.334 30.1854 104.525 30.1198 106.055 30.1198H113.642ZM107.33 26.6419C105.736 26.6419 105.417 26.4451 105.991 24.6733L107.585 19.7518C108.542 16.7332 109.817 13.1897 110.327 11.6805C110.901 13.0585 112.048 16.602 112.941 19.4237L114.598 24.7389C115.108 26.4451 114.79 26.6419 113.323 26.6419H107.33Z" fill="white"/>
<path d="M177.528 18.1113C177.528 12.796 177.783 7.87447 178.484 6.10271C179.058 4.72468 180.269 4.19972 181.927 3.93724L183.074 3.74037C183.585 3.21541 183.457 1.83738 183.074 1.44365C180.588 1.5749 178.293 1.64052 175.934 1.64052C173.32 1.64052 170.833 1.5749 167.39 1.44365C167.008 1.83738 166.88 3.21541 167.39 3.74037L169.112 4.00286C170.833 4.26534 172.236 4.72468 172.81 6.10271C173.511 7.87447 173.766 12.796 173.766 18.1113V27.1669C173.766 28.3481 173.766 29.4636 173.511 30.1198C172.045 28.6106 170.196 26.3138 167.39 22.9016L162.035 16.4051C156.297 9.38374 152.153 4.39658 151.515 1.44365C150.176 1.5749 148.327 1.64052 146.159 1.64052C143.545 1.64052 140.358 1.5749 137.361 1.44365C136.723 1.64052 136.66 3.21541 137.106 3.74037L138.891 4.00286C141.123 4.33096 142.015 5.1184 142.525 6.23395C142.908 7.15264 142.972 8.20257 142.972 11.8117V28.4793C142.972 33.7946 142.78 38.7161 142.079 40.4879C141.569 41.8659 140.294 42.3252 138.572 42.6534L137.489 42.8502C136.978 43.3752 137.106 44.7532 137.489 45.1469C139.911 45.0157 142.27 44.9501 144.629 44.9501C147.18 44.9501 149.73 45.0157 153.173 45.1469C153.555 44.7532 153.683 43.3752 153.173 42.8502L151.387 42.5877C149.73 42.3253 148.263 41.8659 147.69 40.4879C146.988 38.7161 146.733 33.7946 146.733 28.4793V15.7489C146.733 13.321 146.733 12.2054 147.052 11.5492C148.2 12.5335 150.304 15.2896 154.001 19.9486L168.729 38.7161C171.726 42.5221 173.83 45.8688 173.894 45.8688C175.424 45.8688 177.209 45.1469 177.655 44.3595C177.528 42.194 177.528 38.0599 177.528 33.7946V18.1113Z" fill="white"/>
<path d="M194.107 35.5007C194.107 41.5378 193.725 42.0628 190.856 42.5221L188.879 42.8502C188.369 43.1783 188.369 44.7532 188.879 45.1469C192.513 45.0157 195.765 44.9501 198.825 44.9501C201.121 44.9501 204.308 45.3438 207.305 45.3438C213.872 45.3438 219.1 44.4907 223.435 42.2596C230.767 38.5193 234.848 31.4322 234.848 22.6391C234.848 14.4365 230.257 6.6933 221.905 3.60913C217.506 1.96862 212.278 1.44365 207.05 1.44365C200.292 1.44365 195.319 1.70614 189.963 2.03424C189.198 2.09986 189.198 4.00286 189.836 4.33096L191.047 4.4622C193.98 4.7903 194.107 6.03709 194.107 12.271V35.5007ZM203.225 9.12126C203.225 7.08702 203.288 5.84023 203.671 5.31527C204.053 4.7903 205.265 4.4622 206.986 4.4622C218.526 4.4622 224.583 11.4836 224.583 23.2953C224.583 32.2197 220.821 42.3253 209.791 42.3253C207.496 42.3253 205.647 41.7347 204.5 40.4223C203.352 39.0442 203.225 36.6819 203.225 33.0728V9.12126Z" fill="white"/>
<path d="M256.969 7.21826C256.969 4.7903 256.969 4.65906 259.073 4.65906H264.174C267.298 4.65906 269.211 5.44651 270.422 6.6933C271.251 7.61199 272.143 9.5806 272.845 11.8773C273.482 12.4679 274.949 12.3367 275.204 11.6148C274.885 7.21826 274.439 2.49358 274.375 1.44365C273.546 1.5749 269.912 1.64052 265.831 1.64052H252.315C249.255 1.64052 246.131 1.5749 243.134 1.44365C242.497 1.83738 242.433 3.34665 243.007 3.74037L244.601 4.06848C247.47 4.65906 247.852 5.05278 247.852 11.0243V35.5007C247.852 41.5378 247.47 41.9315 244.601 42.3909L241.604 42.8502C241.094 43.1783 241.094 44.7532 241.604 45.1469C246.386 45.0157 249.51 44.9501 252.57 44.9501H260.858C266.086 44.9501 272.207 45.0157 275.586 45.1469C276.479 43.3752 278.009 38.0599 278.264 34.6476C278.009 33.8602 276.415 33.5977 275.905 34.3195C272.398 41.7347 270.231 41.9315 264.684 41.9315C260.03 41.9315 258.818 41.4066 257.989 40.2254C257.224 39.1098 256.969 37.01 256.969 33.9914V26.1826C256.969 24.214 257.033 24.1484 258.754 24.1484H263.154C266.469 24.1484 267.234 24.6733 267.872 27.8231L268.19 29.4636C268.637 30.0542 270.231 29.9886 270.549 29.398C270.422 27.2981 270.358 24.9358 270.358 22.4422C270.358 19.9486 270.422 17.5863 270.549 15.4864C270.231 14.8959 268.637 14.8959 268.19 15.4208L267.872 17.0613C267.234 20.2111 266.469 20.6705 263.154 20.6705H258.754C257.033 20.6705 256.969 20.5392 256.969 18.7019V7.21826Z" fill="white"/>
<path d="M311.977 32.679C311.977 25.4608 306.94 21.6548 302.987 19.4893L298.779 17.1926C295.591 15.4864 292.977 12.7304 292.977 9.71184C292.977 6.43082 295.273 3.60913 299.48 3.60913C304.071 3.60913 306.812 8.39943 307.896 11.7461C308.47 12.4023 310.064 12.3367 310.383 11.5492C310.383 7.15264 309.745 3.60913 309.235 2.16548C308.47 2.03424 307.896 1.903 307.067 1.64052C304.517 0.853068 301.903 0.590585 299.799 0.590585C290.555 0.590585 284.944 5.70899 285.008 13.1241C285.008 19.6205 290.044 23.5578 294.635 25.9201C298.46 27.8887 303.306 31.0385 303.306 36.3538C303.306 39.6348 301.138 42.9815 296.42 42.9815C291.001 42.9815 286.729 36.9444 285.454 32.679C284.944 31.9572 283.478 32.0228 283.031 32.8759C283.031 37.3381 283.86 42.0628 285.072 43.5064C286.41 44.2939 290.044 46 295.91 46C305.537 46 311.977 40.7504 311.977 32.679Z" fill="white"/>
<path d="M333.262 35.5007C333.262 41.6034 332.88 42.194 330.011 42.5221L327.142 42.8502C326.632 43.2439 326.632 44.7532 327.142 45.1469C331.605 45.0157 334.92 44.9501 337.98 44.9501C340.849 44.9501 344.037 45.0157 348.182 45.1469C348.628 44.7532 348.628 43.2439 348.182 42.8502L345.631 42.5221C342.762 42.1284 342.38 41.6034 342.38 35.5007V6.56206C342.38 4.85592 342.571 4.65906 344.101 4.65906H347.926C352.708 4.65906 353.601 7.74323 354.685 11.9429C355.003 12.4679 356.725 12.3367 357.044 11.7461C356.916 8.00571 357.362 2.69044 358 0.459346C357.872 0.262483 357.426 0 357.044 0C356.661 0 356.47 0.0656236 356.215 0.196863C355.641 1.5749 354.685 1.64052 350.477 1.64052H326.759C321.914 1.64052 321.723 1.37803 321.404 0.262483C321.149 0.0656236 320.83 0 320.511 0C320.192 0 319.874 0.131243 319.619 0.328106C319.172 2.88731 318.853 6.95578 317.515 11.4836C317.897 12.3367 319.109 12.4679 319.874 12.0742C321.786 7.28388 323.125 4.65906 327.779 4.65906H331.732C333.262 4.65906 333.262 4.98716 333.262 6.56206V35.5007Z" fill="white"/>
</svg>
