<!DOCTYPE svg PUBLIC "-//W3C//DTD SVG 1.1//EN" "http://www.w3.org/Graphics/SVG/1.1/DTD/svg11.dtd">
<!-- Uploaded to: SVG Repo, www.svgrepo.com, Transformed by: SVG Repo Mixer Tools -->
<svg fill="#FFFFFF" width="800px" height="800px" viewBox="0 0 24 24" id="date-alt-favorite" data-name="Flat Color" xmlns="http://www.w3.org/2000/svg" class="icon flat-color" stroke="#FFFFFF">
<g id="SVGRepo_bgCarrier" stroke-width="0"/>
<g id="SVGRepo_tracerCarrier" stroke-linecap="round" stroke-linejoin="round"/>
<g id="SVGRepo_iconCarrier">
<rect id="secondary" x="2" y="3" width="20" height="17" rx="2" style="fill: #2ca9bc;"/>
<circle id="primary" cx="12" cy="15" r="7" style="fill: #000000;"/>
<path id="primary-2" data-name="primary" d="M20,3H4A2,2,0,0,0,2,5V9H22V5A2,2,0,0,0,20,3Z" style="fill: #000000;"/>
<path id="secondary-2" data-name="secondary" d="M16,6a1,1,0,0,1-1-1V3a1,1,0,0,1,2,0V5A1,1,0,0,1,16,6ZM9,5V3A1,1,0,0,0,7,3V5A1,1,0,0,0,9,5Zm5.61,7.65A2.22,2.22,0,0,0,12,12.26a2.22,2.22,0,0,0-2.88,3.21,2,2,0,0,0,.27.33l1.9,1.91a1,1,0,0,0,1.42,0l1.91-1.91a2.5,2.5,0,0,0,.26-.33A2.21,2.21,0,0,0,14.61,12.65Z" style="fill: #2ca9bc;"/>
</g>
</svg>